<?xml version="1.0" encoding="utf-8"?>
<!DOCTYPE svg PUBLIC "-//W3C//DTD SVG 1.1//EN" "http://www.w3.org/Graphics/SVG/1.1/DTD/svg11.dtd">
<svg version="1.1" xmlns="http://www.w3.org/2000/svg" xmlns:xlink="http://www.w3.org/1999/xlink"
    x="0px" y="0px" viewBox="0 0 256 256" enable-background="new 0 0 256 256" xml:space="preserve">
<g><g><g><path fill="#ffffff" d="M167.7,65.8H62.9l8.6-8.6c5.4-5.4,5.4-14.1,0-19.5c-5.4-5.4-14.1-5.4-19.5,0L19.8,69.8h0L10,79.6l9.8,9.8c0,0,0,0,0,0l34.5,34.5c2.7,2.7,6.2,4,9.8,4s7.1-1.3,9.8-4c5.4-5.4,5.4-14.1,0-19.5l-11-11h104.8c27.9,0,50.7,22.7,50.7,50.7c0,27.9-22.7,50.7-50.7,50.7H29.6c-7.6,0-13.8,6.2-13.8,13.8s6.2,13.8,13.8,13.8h138.2c43.2,0,78.3-35.2,78.3-78.3C246,100.9,210.9,65.8,167.7,65.8z"/></g><g></g><g></g><g></g><g></g><g></g><g></g><g></g><g></g><g></g><g></g><g></g><g></g><g></g><g></g><g></g></g></g>
</svg>